<svg xmlns="http://www.w3.org/2000/svg" width="512" height="512" viewBox="0 0 512 512" version="1.1">
	<path d="M 243 26.600 C 201.799 29.369, 157.694 43.317, 122.645 64.664 C 79.779 90.772, 48.962 127.399, 31.475 173.024 C 22.116 197.442, 17.694 222.914, 17.762 252 C 17.856 291.405, 25.150 322.577, 42.099 356 C 73.462 417.847, 134.081 460.594, 209.667 474.165 C 221.204 476.237, 225.579 476.471, 253 476.485 C 287.058 476.502, 294.192 475.734, 319.500 469.324 C 374.875 455.299, 419.476 427.031, 449.391 387 C 473.757 354.395, 488.536 313.988, 492.062 270.333 C 495.113 232.559, 486.605 188.248, 469.613 153.412 C 451.346 115.964, 430.062 92.167, 393 67.752 C 361.240 46.830, 320.926 32.029, 285 28.100 C 273.926 26.889, 250.926 26.068, 243 26.600 M 234 46.024 C 220.374 46.751, 218.963 46.925, 204.500 49.653 C 170.309 56.102, 131.137 74.154, 105 95.508 C 95.460 103.302, 77.392 122.215, 69.924 132.223 C 57.631 148.699, 43.757 174.162, 38.171 190.500 C 35.108 199.460, 32.726 211, 33.940 211 C 34.291 211, 36.085 208.513, 37.928 205.472 C 39.770 202.432, 41.503 200.170, 41.778 200.445 C 42.967 201.634, 36.647 229.678, 34.235 233.915 L 31.722 238.330 32.851 257.976 C 35.017 295.680, 41.431 320.403, 56.921 350.753 C 64.777 366.145, 66.760 369.169, 78.886 384.260 C 96.461 406.132, 117.544 422.449, 146.458 436.558 C 193.096 459.315, 245.502 466.867, 295 457.965 C 356.693 446.869, 402.742 421.588, 433.596 381.874 C 443.870 368.650, 449.430 359.589, 456.843 343.991 C 470.046 316.207, 475.604 291.682, 476.694 256.402 C 477.257 238.176, 477.189 237.170, 475.211 234.402 C 473.766 232.379, 472.363 226.975, 470.582 216.571 C 469.176 208.360, 468.227 201.440, 468.474 201.193 C 468.721 200.946, 470.361 203.056, 472.118 205.882 C 473.875 208.709, 475.471 210.862, 475.665 210.668 C 475.859 210.474, 475.301 206.532, 474.425 201.908 C 471.727 187.668, 463.395 168.555, 450.708 147.500 C 434.124 119.980, 416.748 101.769, 390.793 84.705 C 344.378 54.191, 297.537 42.635, 234 46.024 M 225 55.081 C 184.052 59.576, 147.076 72.679, 115.450 93.900 C 88.079 112.267, 69.738 132.893, 56.863 159.786 C 52.018 169.907, 44.045 191.825, 44.015 195.107 C 44.003 196.397, 45.531 196.829, 51.750 197.297 C 59.420 197.873, 82.345 203.044, 86.070 205.038 C 88.601 206.392, 88.612 211.388, 86.089 213.911 C 84.114 215.886, 74.438 217.497, 68.536 216.833 C 64.723 216.405, 64.067 218.881, 66.928 222.899 C 68.068 224.499, 68.998 226.189, 68.996 226.654 C 68.994 227.119, 65.831 228.829, 61.967 230.453 C 58.103 232.078, 54.279 234.140, 53.468 235.035 C 52.152 236.490, 52.315 236.950, 54.997 239.340 L 58 242.015 58 260.928 L 58 279.841 81.750 280.367 C 94.813 280.657, 107.638 281.188, 110.250 281.548 C 114.536 282.138, 115 282.008, 115 280.223 C 115 279.135, 114.367 277.719, 113.593 277.077 C 112.508 276.176, 112.082 271.633, 111.730 257.205 C 111.479 246.917, 110.951 237.551, 110.557 236.391 C 109.952 234.610, 110.320 234.186, 112.920 233.666 C 118.914 232.467, 115.930 230.036, 105.796 227.863 C 100.673 226.764, 98.908 225.356, 101.437 224.386 C 103.877 223.450, 103.292 221.417, 99.750 218.520 C 97.963 217.057, 95.712 215.222, 94.750 214.440 C 93.787 213.659, 93 211.890, 93 210.510 L 93 208 108 208 L 123 208 123 212.540 C 123 215.643, 122.307 218.018, 120.812 220.041 L 118.623 223.001 120.853 225.077 C 122.852 226.940, 123.013 227.766, 122.412 233.077 C 121.520 240.956, 123.500 241.013, 128.363 233.250 C 130.487 229.858, 131.604 229, 133.890 229 C 139.535 229, 139.446 228.279, 140.137 279.402 C 141.406 373.254, 141.516 363.950, 139.118 365.630 C 135.102 368.443, 136.460 370, 142.929 370 C 152.721 370, 152 374.362, 152 315.084 C 152 264.580, 152.049 263.266, 154 261.500 C 155.788 259.882, 156.002 258.409, 156.015 247.595 C 156.024 239.856, 156.485 234.600, 157.294 233 C 159.121 229.389, 162.872 229.686, 165.546 233.654 C 167.610 236.717, 167.690 238.127, 168.334 282.654 C 168.699 307.869, 168.998 340.313, 168.999 354.750 L 169 381 179.508 381 L 190.015 381 189.758 375.179 C 189.570 370.935, 189.929 368.928, 191.085 367.772 C 192.489 366.368, 192.743 358.206, 193.309 296.343 C 193.947 226.598, 193.951 226.498, 196.085 224.750 C 198.965 222.391, 201.227 222.548, 203.797 225.284 C 205.933 227.558, 205.946 227.875, 206.634 295.262 L 207.325 362.956 204.663 365.051 C 200.033 368.692, 201.138 370, 208.845 370 C 219.350 370, 218.831 371.659, 218.995 337.500 C 219.078 320.121, 218.715 306.897, 218.090 304.500 C 216.787 299.501, 216.699 289.921, 217.927 286.692 C 218.437 285.351, 219.946 283.979, 221.281 283.644 C 223.463 283.097, 223.772 282.353, 224.347 276.268 C 224.698 272.545, 224.989 260.263, 224.993 248.973 C 225.001 226.739, 225.594 224, 230.402 224 C 235.628 224, 235.882 225.346, 236.203 254.814 C 236.510 283.014, 236.496 282.918, 240.500 284.317 C 241.050 284.509, 241.530 288.229, 241.567 292.583 L 241.635 300.500 254.067 300.500 L 266.500 300.500 267.056 292.648 C 267.477 286.708, 268.025 284.566, 269.306 283.848 C 270.833 282.994, 271 280.220, 271 255.673 C 271 225.584, 271.297 224, 276.934 224 C 282.298 224, 282.473 224.917, 282.809 254.732 L 283.119 282.161 286.098 283.831 L 289.078 285.500 288.545 297 C 287.262 324.672, 286.900 364.606, 287.908 367.257 C 288.914 369.905, 289.206 370, 296.309 370 C 300.356 370, 303.987 369.680, 304.379 369.288 C 304.770 368.896, 303.578 367.209, 301.729 365.538 L 298.367 362.500 299.061 315 C 299.443 288.875, 300.097 258.550, 300.515 247.612 C 301.182 230.167, 301.504 227.496, 303.138 225.862 C 305.639 223.361, 310.619 223.420, 311.983 225.968 C 312.673 227.258, 313.259 251.899, 313.682 297.462 C 314.293 363.187, 314.428 367.078, 316.164 368.648 C 317.509 369.866, 318 371.739, 318 375.655 L 318 381 329.129 381 L 340.258 381 339.651 375.250 C 339.316 372.087, 338.975 339.800, 338.892 303.500 L 338.741 237.500 340.969 233.750 C 343.340 229.761, 345.416 229.123, 348.559 231.417 C 350.284 232.677, 350.536 234.344, 350.827 246.415 C 351.125 258.775, 351.339 260.124, 353.208 261.433 C 355.238 262.855, 355.258 263.453, 355.072 314.765 C 354.902 361.810, 355.038 366.786, 356.526 368.022 C 358.587 369.732, 368.991 370.450, 371 369.020 C 372.273 368.114, 372.060 367.591, 369.595 365.565 L 366.690 363.178 367.413 299.159 C 367.810 263.949, 368.475 233.872, 368.890 232.320 C 369.552 229.844, 370.114 229.500, 373.506 229.500 C 377.027 229.500, 377.601 229.898, 379.999 233.999 C 381.446 236.473, 383.389 238.644, 384.315 238.822 C 385.762 239.101, 386 238.182, 386 232.314 C 386 226.438, 386.297 225.296, 388.117 224.159 C 390.221 222.845, 390.214 222.816, 386.992 219.492 C 384.153 216.562, 383.833 215.703, 384.420 212.573 L 385.091 209 399.545 209 L 414 209 414 211.540 C 414 212.938, 413.071 215.337, 411.936 216.873 C 410.672 218.583, 409.993 220.795, 410.186 222.582 C 410.491 225.420, 410.267 225.576, 402.027 228.273 C 391.804 231.618, 390.604 232.573, 395.114 233.774 C 397.691 234.460, 398.414 235.132, 398.139 236.587 C 397.940 237.639, 397.564 246.825, 397.303 257 C 396.865 274.049, 396.663 275.677, 394.727 277.763 C 391.105 281.665, 393.503 282.545, 403.647 281.036 C 409.321 280.191, 419.017 279.872, 431.431 280.119 L 450.500 280.500 451.056 261.193 L 451.611 241.885 454.556 239.447 C 457.460 237.042, 457.473 236.987, 455.500 235.423 C 454.400 234.550, 450.462 232.293, 446.750 230.406 C 443.038 228.519, 440 226.708, 440 226.382 C 440 226.056, 441.125 224.452, 442.500 222.818 C 446.555 217.998, 445.937 217.367, 436.444 216.637 C 431.737 216.276, 426.310 215.321, 424.382 214.515 C 421.147 213.164, 420.900 212.758, 421.188 209.275 L 421.500 205.500 436.500 201.688 C 444.750 199.591, 454.739 197.615, 458.697 197.297 L 465.894 196.719 465.339 193.610 C 464.195 187.206, 457.061 167.120, 452.625 157.815 C 441.393 134.255, 421.878 112.152, 399 97.078 C 368.688 77.105, 329.593 62.114, 293 56.429 C 280.574 54.499, 237.992 53.655, 225 55.081 M 194.972 138.844 C 124.863 169.060, 109 176.139, 109 177.208 C 109 178.184, 132.282 178.058, 140.500 177.038 C 143.800 176.629, 145.375 176.221, 144 176.132 C 138.503 175.775, 138.488 174.293, 143.955 171.523 C 153.400 166.736, 239.613 128.889, 251.654 124.243 L 255.808 122.640 278.654 133 C 291.219 138.698, 311.400 147.692, 323.500 152.987 C 335.600 158.282, 351.757 165.514, 359.404 169.057 C 371.603 174.710, 372.952 175.567, 370.404 176.046 C 368.300 176.442, 369.428 176.784, 374.500 177.289 C 383.690 178.204, 395.986 178.072, 398.500 177.032 C 400.302 176.287, 400.154 176.055, 397 174.690 C 395.075 173.858, 375.275 165.317, 353 155.711 C 330.725 146.104, 300.350 132.835, 285.500 126.222 C 270.650 119.609, 257.600 113.972, 256.500 113.694 C 255.253 113.379, 232.081 122.851, 194.972 138.844 M 245.500 138.066 C 240 140.265, 227.625 144.935, 218 148.444 C 201.300 154.532, 181.323 162.631, 179.772 163.941 C 178.886 164.690, 204.336 164.207, 212 163.330 L 217.500 162.700 212.728 161.167 C 210.103 160.325, 208.102 159.195, 208.281 158.658 C 208.460 158.121, 211.057 156.784, 214.053 155.686 C 217.049 154.589, 227.010 150.611, 236.188 146.846 C 245.366 143.081, 253.744 140, 254.806 140 C 255.867 140, 260.597 141.970, 265.316 144.378 C 270.034 146.786, 279.544 151.124, 286.448 154.017 C 293.351 156.911, 299 159.653, 299 160.111 C 299 160.568, 297.538 161.365, 295.750 161.881 C 292.912 162.701, 293.386 162.836, 299.500 162.945 C 303.350 163.015, 310.995 163.473, 316.489 163.963 C 321.983 164.454, 326.607 164.726, 326.764 164.569 C 327.180 164.153, 303.367 153.833, 285.022 146.478 C 276.321 142.990, 267.018 139.038, 264.351 137.697 C 256.581 133.792, 256.174 133.800, 245.500 138.066 M 131.121 184.723 C 128.814 185.159, 128.762 185.376, 129.421 191.809 C 129.795 195.458, 130.641 198.791, 131.301 199.214 C 132.789 200.168, 377.569 199.765, 378.527 198.806 C 378.909 198.424, 379.453 195.229, 379.736 191.706 L 380.250 185.300 377 184.650 C 373.409 183.932, 134.927 184.002, 131.121 184.723 M 128.667 208.667 C 128.300 209.033, 128 210.608, 128 212.167 L 128 215 253.941 215 C 341.338 215, 380.082 214.677, 380.535 213.943 C 380.894 213.362, 380.912 211.787, 380.575 210.443 L 379.962 208 254.648 208 C 185.725 208, 129.033 208.300, 128.667 208.667 M 131.082 224.401 C 130.116 225.565, 130.812 225.871, 135.210 226.212 C 141.391 226.691, 142.205 226.355, 139.557 224.418 C 137.074 222.603, 132.582 222.593, 131.082 224.401 M 368.662 224.618 C 367.100 225.464, 365.975 226.290, 366.162 226.453 C 366.348 226.615, 369.087 226.524, 372.250 226.250 C 376.223 225.906, 378 225.327, 378 224.376 C 378 222.501, 372.295 222.649, 368.662 224.618 M 409.219 240.559 C 406.363 242.560, 406.133 248.905, 408.829 251.345 C 412.746 254.890, 418 252.036, 418 246.362 C 418 240.844, 413.273 237.720, 409.219 240.559 M 92.683 243.035 C 89.469 245.563, 89.192 249.192, 92 252 C 97.229 257.229, 104.702 250.100, 100.250 244.130 C 97.695 240.705, 95.963 240.455, 92.683 243.035 M 91.655 259.829 C 89.430 262.288, 89.568 265.568, 92 268 C 94.407 270.407, 95.840 270.501, 98.777 268.443 C 101.552 266.500, 101.654 262.654, 99 260 C 96.509 257.509, 93.811 257.446, 91.655 259.829 M 408.571 259.571 C 405.067 263.076, 407.846 270, 412.757 270 C 415.489 270, 418 267.438, 418 264.651 C 418 259.199, 412.114 256.029, 408.571 259.571 M 99 288.025 C 99 289.264, 98.031 290.418, 96.500 291 C 94.700 291.685, 94 292.694, 94 294.606 C 94 297.083, 93.764 297.223, 90.500 296.694 C 87.014 296.128, 87 296.141, 87 299.928 L 87 303.731 78.250 305.115 C 68.141 306.715, 67.320 307.923, 73.494 312.116 C 75.690 313.607, 77.783 315.879, 78.144 317.164 C 79.063 320.432, 79.132 348.245, 78.225 349.671 C 77.815 350.315, 76.247 351.151, 74.740 351.529 C 72.008 352.215, 72 352.243, 72 361.191 L 72 370.165 81.750 382.221 C 87.112 388.852, 92.470 395.452, 93.655 396.888 L 95.810 399.500 237.655 399.827 C 315.670 400.007, 387.643 399.848, 397.595 399.475 L 415.689 398.795 422.595 390.671 C 431.635 380.035, 436.417 373.959, 437.842 371.295 C 439.391 368.401, 439.359 353.759, 437.800 352.200 C 437.140 351.540, 435.565 351, 434.300 351 C 432.083 351, 431.991 350.666, 431.760 341.750 C 431.628 336.663, 431.653 328.900, 431.816 324.500 C 432.109 316.612, 432.168 316.449, 436.057 312.866 C 438.225 310.867, 440 308.718, 440 308.091 C 440 306.502, 436.577 305.372, 429.183 304.518 L 422.865 303.788 423.157 300.144 C 423.409 296.983, 423.187 296.550, 421.474 296.877 C 417.246 297.686, 416.493 297.443, 416.170 295.170 C 415.956 293.662, 414.831 292.489, 412.979 291.843 C 411.219 291.229, 410 290.014, 409.809 288.683 C 409.351 285.476, 406.214 285.298, 405.427 288.434 C 405.073 289.845, 404.134 291, 403.341 291 C 402.547 291, 401.244 292.564, 400.446 294.476 C 399.632 296.422, 397.674 298.634, 395.997 299.502 C 394.348 300.354, 393 301.706, 393 302.507 C 393 304.733, 387.949 305.661, 386.819 303.641 C 386.314 302.739, 385.248 302, 384.450 302 C 382.282 302, 382.273 379.152, 384.441 380.951 C 385.233 381.608, 385.635 382.788, 385.334 383.573 C 384.490 385.773, 123.840 385.717, 122.014 383.517 C 120.993 382.287, 121.229 381.863, 123.391 381.041 L 126 380.050 126.004 354.775 C 126.006 340.874, 126.261 323.875, 126.571 317 C 126.960 308.364, 126.780 304.036, 125.991 303 C 125.128 301.868, 124.723 301.807, 124.341 302.750 C 123.437 304.976, 119.231 304.077, 116.154 301 C 114.504 299.350, 112.421 298, 111.525 298 C 110.606 298, 109.430 296.662, 108.825 294.929 C 108.216 293.181, 106.688 291.452, 105.281 290.917 C 103.920 290.399, 102.573 289.081, 102.287 287.988 C 101.606 285.385, 99 285.414, 99 288.025 M 227 307.927 C 227 308.438, 228.029 309.675, 229.286 310.677 C 235.080 315.297, 235 314.756, 235 349.223 L 235 381 254 381 L 273 381 273 348.829 L 273 316.657 277.423 312.419 C 279.856 310.088, 281.581 307.915, 281.257 307.590 C 280.256 306.589, 227 306.920, 227 307.927 M 96.668 320.253 C 93.818 322.337, 93.462 328.046, 95.982 331.250 C 101.774 338.614, 110.871 328.972, 105.443 321.223 C 103.696 318.728, 99.403 318.254, 96.668 320.253 M 405.400 319.765 C 401.777 322.184, 400.998 328.998, 404 332 C 406.705 334.705, 409.576 334.515, 412.664 331.427 C 414.811 329.279, 415.139 328.244, 414.642 325.180 C 413.807 320.038, 409.112 317.287, 405.400 319.765 M 115.607 391.582 C 115.273 392.452, 115 393.352, 115 393.582 C 115 393.812, 177.550 394, 254 394 C 392.333 394, 393 393.990, 393 392 C 393 390.010, 392.333 390, 254.607 390 C 129.333 390, 116.156 390.150, 115.607 391.582 M 200.500 444.866 C 196.278 445.401, 195.889 445.615, 198 446.239 C 205.507 448.458, 225.555 449.194, 264.345 448.676 C 305.151 448.131, 315.658 447.428, 311.500 445.520 C 309.233 444.479, 208.234 443.884, 200.500 444.866" stroke="none" fill="black" fill-rule="evenodd"/>
</svg>