<svg xmlns="http://www.w3.org/2000/svg" width="512" height="512" viewBox="0 0 512 512" version="1.1">
	<path d="M 243 24.689 C 217.645 27.358, 190.606 36.914, 167.107 51.510 C 156.898 57.851, 132.592 77.014, 131.652 79.464 C 130.683 81.989, 131.649 82.956, 137.878 85.698 C 151.956 91.896, 154.743 97.203, 151.926 112.442 C 151.335 115.638, 150.486 125.733, 150.039 134.876 C 149.351 148.943, 148.870 152.309, 146.909 156.763 C 144.792 161.572, 144.700 162.435, 145.846 166.763 C 146.536 169.368, 148.261 173.267, 149.681 175.426 C 151.764 178.596, 152.044 179.700, 151.131 181.162 C 149.436 183.875, 149.713 184.222, 153 183.500 C 156.447 182.743, 156.997 184.241, 154.345 187.171 C 152.774 188.907, 152.855 189, 155.951 189 L 159.212 189 158.856 196.802 C 158.553 203.447, 157.922 205.774, 154.603 212.489 C 150.002 221.798, 149.852 224.987, 153.782 229.880 C 158.731 236.039, 160.295 240.078, 160.802 248 C 161.094 252.572, 162.007 256.861, 163.141 258.985 C 164.163 260.902, 165 263.858, 165 265.554 C 165 267.250, 165.648 270.856, 166.441 273.568 C 167.233 276.281, 168.371 282.325, 168.970 287 C 170.569 299.481, 170.922 300.754, 173.704 304.060 C 178.211 309.417, 181.188 310.303, 197.077 311.015 C 205.094 311.374, 212.224 312.020, 212.920 312.451 C 213.838 313.018, 213.095 314.372, 210.222 317.367 C 208.041 319.640, 204.401 324.724, 202.134 328.665 C 199.647 332.986, 196.719 336.622, 194.756 337.826 C 189.314 341.162, 149.731 357.705, 141.869 359.929 C 126.229 364.354, 123.345 365.319, 118.583 367.722 C 107.922 373.101, 96.371 387.589, 91.462 401.738 C 89.283 408.018, 87 421.624, 87 428.332 C 87 430.856, 87.292 431.143, 89.336 430.630 C 93.901 429.485, 121.492 435.283, 124.343 437.987 C 124.807 438.427, 125.482 442.061, 125.843 446.063 C 126.667 455.193, 128.596 456.387, 129.469 448.307 C 130.966 434.452, 133.112 422.758, 134.565 420.541 C 135.427 419.226, 137.497 417.674, 139.166 417.092 C 141.866 416.151, 142.123 416.225, 141.492 417.767 C 139.315 423.090, 136.370 440.432, 135.862 450.926 L 135.599 456.353 142.549 456.590 C 146.372 456.721, 152.425 457.760, 156 458.901 C 163.459 461.280, 166.851 461.461, 173.828 459.850 L 178.808 458.701 182.507 445.600 C 187.804 426.837, 198.043 396, 198.975 396 C 199.410 396, 200.001 396.898, 200.288 397.995 C 201.286 401.811, 204.054 401.600, 207.903 397.415 C 209.883 395.262, 212.270 392.375, 213.206 391 C 214.847 388.592, 214.904 388.994, 214.765 402 L 214.621 415.500 208.423 428.011 C 201.516 441.953, 196.695 454.789, 195.077 463.543 C 194.186 468.360, 194.263 469.752, 195.524 471.677 C 197.470 474.647, 199.125 474.607, 202.818 471.500 C 206.514 468.390, 207.333 468.390, 211.411 471.500 C 213.214 472.875, 215.110 474, 215.626 474 C 216.141 474, 219.234 471.300, 222.500 468 C 228.846 461.588, 230.789 460.831, 232.768 464 C 235.484 468.349, 239.999 464.617, 242.985 455.553 C 244.441 451.132, 243.874 434.091, 241.908 423.209 L 240.772 416.917 244.535 411.209 C 248.706 404.882, 262.240 390.998, 264.230 391.004 C 264.929 391.006, 267.691 393.719, 270.369 397.032 C 275.021 402.787, 278.603 405.731, 279.664 404.669 C 280.432 403.902, 278.188 400.346, 268.800 387.450 C 250.477 362.282, 248.897 360.934, 241.934 364.534 C 238.649 366.233, 237.056 365.504, 237.015 362.285 C 236.989 360.228, 233.576 359.081, 229.935 359.905 C 221.239 361.874, 215.580 367.372, 211.963 377.367 C 209.443 384.332, 205.057 393.390, 204.483 392.816 C 203.581 391.914, 207.317 361.642, 209.459 352.500 C 210.748 347, 212.082 340.174, 212.425 337.331 C 213.110 331.642, 214.822 326, 215.863 326 C 216.230 326, 217.297 328.137, 218.233 330.750 C 220.879 338.132, 226.962 347.759, 233.027 354.164 C 237.975 359.389, 238.969 359.998, 242.527 359.978 C 244.712 359.966, 248.300 359.132, 250.500 358.124 C 256.813 355.234, 310.816 318.864, 321.681 310.185 C 331.320 302.486, 344 289.861, 344 287.963 C 344 283.047, 352.819 300.230, 353.712 306.886 C 354.913 315.845, 348.671 326.480, 321.071 362.500 C 312.222 374.050, 300.558 389.575, 295.153 397 C 272.318 428.366, 239.610 477.560, 240.564 479.103 C 240.869 479.596, 242.187 480, 243.492 480 C 244.798 480, 252.030 481.138, 259.564 482.530 C 271.569 484.747, 273.522 484.885, 275.380 483.647 C 276.546 482.870, 286.500 474.725, 297.500 465.546 C 321.443 445.569, 340.785 430.762, 342.284 431.261 C 345.042 432.181, 343.149 434.382, 330.522 444.945 C 323.085 451.166, 317 456.649, 317 457.128 C 317 458.255, 322.372 458.222, 333 457.031 C 342.687 455.945, 405.526 451, 409.638 451 C 411.772 451, 415.323 448.072, 426.423 437.160 C 452.843 411.184, 471.032 396.336, 482.299 391.548 C 487.114 389.501, 489 388.181, 489 386.856 C 489 384.572, 482.854 380.011, 473 374.981 C 468.875 372.876, 455.935 364.931, 444.245 357.327 C 432.555 349.722, 416.379 339.239, 408.298 334.032 C 391.505 323.210, 384.259 316.610, 377.503 305.980 C 368.188 291.323, 368.047 291.167, 361.372 288.013 L 355 285.003 355 280.533 C 355 277.366, 355.365 276.203, 356.250 276.545 C 357.191 276.908, 357.418 275.426, 357.167 270.556 C 356.958 266.508, 357.463 261.918, 358.517 258.293 C 360.678 250.858, 369.016 231.215, 377.319 214 C 390.812 186.024, 395.633 165.979, 394.638 142 C 393.877 123.677, 389.841 107.761, 381.946 91.947 C 364.996 57.993, 334.342 32.455, 302.698 25.925 C 295.030 24.342, 289.590 24.051, 270 24.173 C 257.075 24.254, 244.925 24.486, 243 24.689 M 325.269 67.272 C 335.694 79.560, 342.426 91.391, 345.599 103 C 347.690 110.650, 348.059 130.283, 346.227 136.444 C 345.582 138.613, 345.224 140.557, 345.431 140.764 C 345.638 140.971, 347.269 139.016, 349.055 136.419 C 352.922 130.800, 356 121.509, 356 115.460 C 356 104.358, 350.553 90.562, 341.920 79.798 C 336.980 73.640, 322.864 61, 320.926 61 C 320.388 61, 322.343 63.822, 325.269 67.272 M 241 69.455 C 241 69.705, 248.214 73.544, 257.032 77.985 C 277.036 88.061, 284.497 92.579, 293.986 100.361 C 300.250 105.499, 301.081 105.950, 299.082 103.129 C 291.428 92.333, 274.391 81.480, 250.790 72.366 C 241.879 68.924, 241 68.663, 241 69.455 M 155.667 78.667 C 153.256 81.077, 155.670 81.728, 169.433 82.379 C 186.704 83.195, 203.001 85.729, 221.120 90.417 C 246.585 97.006, 282.783 110.081, 299 118.549 L 307.500 122.987 303.500 119.415 C 295.169 111.975, 277.984 102.718, 259.500 95.715 C 235.721 86.707, 212.600 81.046, 191.356 79.031 C 179.171 77.876, 156.687 77.646, 155.667 78.667 M 367.047 89.093 C 367.021 89.420, 367.875 92.230, 368.944 95.339 C 371.377 102.408, 374.555 117.297, 375.597 126.500 L 376.389 133.500 377.033 128 C 377.844 121.062, 376.632 110.740, 374.193 103.833 C 372.373 98.676, 367.141 87.886, 367.047 89.093 M 162.430 108.371 C 160.026 113.624, 154.003 144.865, 154.001 152.098 C 154 155.188, 154.836 156.493, 159.926 161.348 C 163.185 164.457, 166.560 167, 167.426 167 C 168.292 167, 169.002 167.787, 169.005 168.750 C 169.008 169.713, 170.119 172.300, 171.474 174.500 C 172.866 176.761, 173.951 180.070, 173.969 182.110 C 174.003 186.067, 164.281 208.709, 159.679 215.390 C 156.455 220.071, 156.256 224.020, 159.115 226.595 C 160.883 228.187, 162.565 228.462, 169.365 228.271 C 173.839 228.145, 180.650 228.505, 184.500 229.072 C 191.348 230.081, 191.548 230.048, 193.702 227.552 C 196.466 224.349, 197 224.354, 197 227.577 C 197 229.094, 195.793 231.361, 194.064 233.090 C 191.231 235.923, 190.888 236.004, 184.314 235.405 C 177.929 234.824, 177.353 234.943, 175.164 237.298 C 173.175 239.438, 172.375 239.681, 169.772 238.935 L 166.716 238.058 167.337 244.708 C 167.679 248.366, 168.425 251.825, 168.996 252.396 C 169.567 252.967, 172.914 253.349, 176.433 253.245 C 180.807 253.115, 185.444 253.837, 191.092 255.527 C 195.635 256.887, 201.475 258, 204.069 258 C 208.558 258, 210 258.973, 210 262.002 C 210 263.128, 197.385 272.245, 191.895 275.086 C 188.609 276.786, 185.782 277.367, 180.693 277.386 C 174.122 277.411, 173.906 277.490, 174.456 279.680 C 174.769 280.928, 175.307 284.644, 175.651 287.938 C 176.813 299.049, 181.188 302.715, 194.493 303.721 C 207.204 304.682, 223.076 300.414, 256.834 286.957 C 266.550 283.084, 277.650 278.247, 281.500 276.207 C 288.387 272.560, 288.544 272.387, 291.212 265.500 C 292.704 261.650, 295.945 251.975, 298.415 244 C 300.885 236.025, 303.555 228.615, 304.348 227.532 C 305.732 225.645, 305.853 225.712, 307.290 229.152 C 311.870 240.113, 323.504 237.678, 338.609 222.597 C 349.296 211.928, 354.018 201.011, 353.978 187.068 C 353.953 178.399, 351.852 172.602, 347.491 169.171 C 342.193 165.004, 337.508 166.896, 324.361 178.510 C 310.933 190.373, 300.850 205.969, 297.598 219.910 C 296.779 223.419, 295.691 226.709, 295.180 227.220 C 293.826 228.574, 289.903 219.891, 289.069 213.695 L 288.370 208.500 286.998 217.718 C 285.469 227.992, 284.679 228.332, 281.191 220.219 C 276.893 210.223, 276.336 188.777, 280.038 175.868 C 280.567 174.023, 281 171.150, 281 169.485 C 281 166.632, 280.377 166.147, 270.250 161.123 C 246.345 149.265, 224.583 132.064, 212.213 115.250 C 209.683 111.813, 207.364 108.970, 207.057 108.933 C 206.751 108.896, 200.425 108.763, 193 108.638 C 181.290 108.441, 178.527 108.061, 172.163 105.775 L 164.825 103.140 162.430 108.371 M 233.500 115.704 C 235.539 117.888, 270.859 139.902, 281 145.310 C 290.160 150.194, 305.201 157, 306.834 157 C 307.680 157, 280.013 141.178, 257.860 128.993 C 247.058 123.052, 236.933 117.390, 235.360 116.412 C 233.787 115.433, 232.950 115.115, 233.500 115.704 M 214.500 159.342 C 211.750 160.057, 205.557 162.104, 200.738 163.891 C 195.918 165.678, 190.743 166.996, 189.238 166.820 C 186.939 166.551, 186.452 166.913, 186.200 169.078 C 186.032 170.521, 186.746 172.700, 187.822 174.029 C 189.660 176.298, 189.973 176.350, 194.948 175.201 C 203.081 173.324, 203.425 173.480, 200.536 177.732 C 196.175 184.151, 197.273 185.432, 204.137 181.930 C 206.368 180.792, 208.399 180.066, 208.651 180.317 C 208.902 180.569, 208.185 182.288, 207.058 184.137 C 204.179 188.858, 204.369 191, 207.664 191 C 209.129 191, 214.191 191.732, 218.914 192.626 C 228.107 194.367, 233.436 193.747, 237.531 190.460 C 239.361 188.991, 238.988 188.910, 232.250 189.306 C 228.262 189.541, 225.014 189.456, 225.032 189.116 C 225.049 188.777, 225.724 187.626, 226.532 186.559 C 227.339 185.491, 228 183.833, 228 182.874 C 228 181.367, 229.011 181.597, 235.434 184.565 C 239.523 186.454, 244.136 187.984, 245.684 187.964 L 248.500 187.928 245.630 185.581 C 241.077 181.857, 223.363 173.082, 218.986 172.382 C 214.458 171.658, 214.010 170.682, 217.250 168.601 C 223.297 164.717, 234.701 165.734, 248.586 171.394 C 258.348 175.374, 259.393 174.461, 252.425 168.038 C 245.421 161.582, 238.417 158.801, 228.120 158.389 C 223.106 158.188, 217.409 158.586, 214.500 159.342 M 151 168.050 C 151 168.627, 151.707 170.467, 152.572 172.139 C 154.094 175.082, 154.207 175.123, 156.106 173.404 C 158.044 171.650, 158.034 171.601, 155.284 169.350 C 152.206 166.832, 151 166.465, 151 168.050 M 342.234 174.105 C 339.293 175.198, 328.931 182.243, 324.357 186.260 L 320.781 189.400 321.446 196.151 L 322.111 202.902 318.122 204.938 C 310.942 208.601, 309.132 213.716, 313.300 218.562 L 315.600 221.236 320.977 218.512 C 323.934 217.013, 328.525 215.142, 331.180 214.354 C 336.847 212.671, 339.212 209.681, 339.361 204.009 C 339.447 200.727, 338.834 199.415, 335.732 196.238 C 333.680 194.136, 332 191.968, 332 191.420 C 332 190.873, 334.218 188.241, 336.928 185.571 L 341.856 180.717 342.550 184.417 C 343.805 191.107, 342.517 204.078, 340.030 209.780 C 338.764 212.685, 337.970 215.303, 338.266 215.600 C 339.431 216.765, 343.052 213.324, 345.701 208.536 C 348.168 204.078, 348.488 202.468, 348.494 194.500 C 348.500 185.364, 347.988 177.456, 347.251 175.327 C 346.654 173.603, 344.800 173.151, 342.234 174.105 M 166.500 182.276 C 164.483 184.374, 164.100 185.168, 165.332 184.698 C 166.339 184.314, 168.252 184, 169.582 184 C 172.287 184, 172.595 183.150, 170.750 180.769 C 169.632 179.326, 169.183 179.486, 166.500 182.276 M 221.157 183.642 C 218.116 186.697, 218.007 187, 219.953 187 C 222.154 187, 227 182.905, 227 181.045 C 227 179.145, 224.549 180.234, 221.157 183.642 M 324.473 207.455 C 319.095 212.273, 319.300 212.558, 326.961 210.915 C 331.933 209.849, 334 207.984, 334 204.566 C 334 201.580, 329.511 202.941, 324.473 207.455 M 319.500 243.115 C 317.850 243.634, 314.692 243.809, 312.483 243.503 L 308.466 242.947 303.601 257.724 C 300.926 265.851, 297.895 274.171, 296.866 276.214 C 294.468 280.977, 288.792 284.804, 259.155 301.645 C 232.784 316.630, 229.466 319.310, 230.366 324.887 C 231.245 330.329, 237.408 342.051, 241.440 345.950 C 247.565 351.872, 248.440 351.552, 276.609 333.062 C 312.067 309.789, 330.215 295.586, 334.382 287.849 C 336.222 284.432, 336.220 284.413, 333.691 280.686 C 330.576 276.097, 329.228 270.061, 328.028 255.328 C 327.519 249.084, 326.828 243.530, 326.492 242.987 C 325.760 241.802, 323.547 241.843, 319.500 243.115 M 180 263.902 L 172.500 264.500 174.750 266.750 C 177.528 269.528, 183.469 269.743, 190.922 267.336 C 199.426 264.590, 193.749 262.805, 180 263.902 M 165.165 371.906 C 150.990 384.615, 150.973 384.650, 154.375 393.500 L 155.912 397.500 155.956 392.784 C 155.997 388.371, 156.470 387.535, 163.316 379.784 C 171.535 370.478, 175.473 365.139, 174.693 364.360 C 174.404 364.071, 170.117 367.467, 165.165 371.906 M 364.995 381.066 C 360.416 386.608, 353.481 393.754, 349.584 396.946 C 341.435 403.623, 338.170 407, 339.865 407 C 342.125 407, 358.519 398.184, 360.594 395.853 C 362.993 393.157, 374.350 372.016, 373.731 371.398 C 373.506 371.173, 369.575 375.523, 364.995 381.066" stroke="none" fill="black" fill-rule="evenodd"/>
</svg>